<svg width="128" height="128">
	<defs>
		<g id="a">
			<rect x="0" y="0" width="100%" height="100%" fill="white" />

			<rect x="32" y="16" width="64" height="24" />
			<rect x="32" y="48" width="16" height="16" rx="4" />
			<rect x="32" y="72" width="16" height="16" rx="4" />
			<rect x="32" y="96" width="16" height="16" rx="4" />
			<rect x="56" y="48" width="16" height="16" rx="4" />
			<rect x="56" y="72" width="16" height="16" rx="4" />
			<rect x="56" y="96" width="16" height="16" rx="4" />
			<rect x="80" y="48" width="16" height="16" rx="4" />
			<rect x="80" y="72" width="16" height="16" rx="4" />
			<rect x="80" y="96" width="16" height="16" rx="4" />
		</g>

		<mask id="mask">
			<use xlink:href="#a" overflow="visible" />
		</mask>
	</defs>


	<rect x="32" y="16" width="64" height="24" fill="none" stroke="#eee" stroke-width="4" />
	<rect x="32" y="48" width="16" height="16" rx="4" fill="none" stroke="#eee" stroke-width="4" />
	<rect x="32" y="72" width="16" height="16" rx="4" fill="none" stroke="#eee" stroke-width="4" />
	<rect x="32" y="96" width="16" height="16" rx="4" fill="none" stroke="#eee" stroke-width="4" />
	<rect x="56" y="48" width="16" height="16" rx="4" fill="none" stroke="#eee" stroke-width="4" />
	<rect x="56" y="72" width="16" height="16" rx="4" fill="none" stroke="#eee" stroke-width="4" />
	<rect x="56" y="96" width="16" height="16" rx="4" fill="none" stroke="#eee" stroke-width="4" />
	<rect x="80" y="48" width="16" height="16" rx="4" fill="none" stroke="#eee" stroke-width="4" />
	<rect x="80" y="72" width="16" height="16" rx="4" fill="none" stroke="#eee" stroke-width="4" />
	<rect x="80" y="96" width="16" height="16" rx="4" fill="none" stroke="#eee" stroke-width="4" />
	<rect
		x="24" y="8"
		width="80" height="112"
		rx="8"
		mask="url(#mask)"
		fill="#09f"
		stroke="#eee"
		stroke-width="4"
		/>
	<rect
		x="24" y="8"
		width="80" height="112"
		rx="8"
		mask="url(#mask)"
		fill="#09f"
		/>
</svg>
